<svg t="1729323125859" class="icon" viewBox="0 0 1210 1024" version="1.1" xmlns="http://www.w3.org/2000/svg" p-id="4330" width="200" height="200"><path d="M1000.741469 492.590545v422.632728c-131.886545 61.742545-263.749818 92.625455-395.636364 92.625454s-263.749818-30.882909-395.636363-92.625454V489.588364l-156.672-77.637819C6.902924 389.213091-12.809076 334.056727 8.741469 288.744727a88.389818 88.389818 0 0 1 41.890909-41.890909L551.228742 8.704A91.810909 91.810909 0 0 1 631.403287 9.774545l506.949818 251.252364c45.870545 22.737455 65.582545 77.893818 44.032 123.205818a88.389818 88.389818 0 0 1-41.890909 41.890909L1000.741469 492.590545z m-46.545454 22.155637l-314.251637 149.504a91.810909 91.810909 0 0 1-80.197818-1.047273L256.014196 512.674909V893.207273c117.224727 46.778182 233.425455 69.957818 349.090909 69.957818 115.665455 0 231.866182-23.179636 349.09091-69.957818V514.746182zM571.220015 50.734545L70.623651 288.884364a41.844364 41.844364 0 0 0-19.851636 19.851636c-10.542545 22.178909-0.605091 49.966545 22.690909 61.509818l506.949818 251.252364c12.776727 6.330182 27.345455 6.516364 39.517091 0.698182l500.596363-238.126546c8.727273-4.142545 15.709091-11.124364 19.851637-19.851636 10.542545-22.178909 0.605091-49.966545-22.667637-61.509818L610.760378 51.456a45.265455 45.265455 0 0 0-39.540363-0.698182z" fill="#333333" p-id="4331"></path><path d="M1117.105105 519.121455m23.272728 0l0 0q23.272727 0 23.272727 23.272727l0 279.272727q0 23.272727-23.272727 23.272727l0 0q-23.272727 0-23.272728-23.272727l0-279.272727q0-23.272727 23.272728-23.272727Z" fill="#36B9A4" p-id="4332"></path></svg>